<svg width="106" height="34" viewBox="0 0 106 34" fill="none" xmlns="http://www.w3.org/2000/svg">
<path d="M20.6711 22.2671V20.3892C20.6711 20.2672 20.6464 20.1697 20.597 20.1209C20.5477 20.0477 20.523 19.9989 20.4737 19.9745C20.3997 19.9258 20.3257 19.9014 20.2517 19.877C20.1777 19.8526 20.079 19.8526 19.931 19.8526H19.709C19.2649 19.877 18.8456 19.9014 18.4015 19.9502C17.9575 19.9989 17.5628 20.0477 17.1928 20.0965C16.6254 20.1697 16.058 20.2428 15.4907 20.3404C14.9233 20.4379 14.4546 20.5355 14.0352 20.6818C13.6405 20.8282 13.3445 20.9989 13.1471 21.194C12.9498 21.3891 12.8511 21.6574 12.8758 22.0232V33.2665C12.8758 33.3885 12.9251 33.486 13.0238 33.5592C13.1225 33.6323 13.1965 33.6567 13.2952 33.6567H16.5021C16.6254 33.6567 16.7241 33.608 16.7981 33.5592C16.8721 33.486 16.8968 33.3885 16.8968 33.2665V23.0476C17.1435 22.9988 17.5381 22.9256 18.1549 22.8768C18.7469 22.8037 19.4376 22.7793 20.2023 22.7793C20.4244 22.7793 20.5477 22.7305 20.597 22.6329C20.6711 22.5354 20.6957 22.4134 20.6711 22.2671Z" fill="black"/>
<path d="M34.7812 26.6814C34.7812 25.5595 34.6825 24.5596 34.4852 23.706C34.2878 22.8524 33.9425 22.1451 33.4738 21.5597C32.9804 20.9744 32.3143 20.5354 31.4756 20.2427C30.6369 19.9501 29.5761 19.8037 28.2934 19.8037C25.8265 19.7794 24.0997 20.3403 23.1376 21.4866C22.1756 22.6329 21.7069 24.4376 21.7562 26.9497C21.7315 29.5105 22.2989 31.3153 23.4583 32.3884C24.6178 33.4615 26.4432 33.9981 28.9594 33.9493C30.0695 33.9249 31.0562 33.8274 31.895 33.6567C32.7337 33.4615 33.3751 33.2908 33.7945 33.0957C33.8685 33.0469 33.9425 32.9982 33.9918 32.925C34.0411 32.8518 34.0658 32.7543 34.0658 32.6567C34.0658 32.6323 34.0658 32.5835 34.0411 32.5104L33.6958 31.0958C33.6464 30.9495 33.5971 30.8519 33.5231 30.7788C33.4491 30.7056 33.3751 30.6812 33.2764 30.6812C33.2517 30.6812 33.2517 30.6812 33.2271 30.6812C33.2024 30.6812 33.2024 30.6812 33.1777 30.7056C32.8324 30.8031 32.339 30.9251 31.7223 31.0714C31.1056 31.2178 30.3902 31.2909 29.6008 31.2909C28.9594 31.2909 28.4167 31.2422 27.9727 31.1446C27.504 31.047 27.134 30.9007 26.8133 30.7056C26.4432 30.4617 26.1472 30.169 25.9745 29.8276C25.8018 29.4861 25.7032 29.0471 25.7032 28.5106H34.0905C34.3372 28.5106 34.5098 28.4374 34.5838 28.2911C34.6825 28.1691 34.7072 27.9984 34.7072 27.8277C34.7072 27.6326 34.7072 27.4375 34.7319 27.1936C34.7812 27.0473 34.7812 26.8521 34.7812 26.6814ZM30.8342 26.1936H25.7525C25.7525 25.8034 25.7772 25.4376 25.8019 25.0961C25.8265 24.7547 25.8512 24.4132 25.9252 24.0962C26.0239 23.5109 26.2706 23.0962 26.6406 22.828C27.0106 22.5597 27.6027 22.4134 28.392 22.4134C29.0334 22.4134 29.5515 22.5353 29.9215 22.8036C30.2915 23.0719 30.5629 23.5352 30.7109 24.1937C30.7602 24.462 30.8096 24.7547 30.8342 25.0474C30.8589 25.34 30.8836 25.6571 30.8836 25.9985V26.1936H30.8342Z" fill="black"/>
<path d="M49.435 31.3886V15.2431C49.435 15.0967 49.3857 14.9748 49.3117 14.9016C49.2377 14.8285 49.1143 14.8041 48.991 14.8041H48.843H45.9074C45.7347 14.8285 45.6114 14.9016 45.5127 14.9992C45.4387 15.0967 45.3894 15.2431 45.4141 15.4138V18.7063V20.2428C45.266 20.194 45.1427 20.1696 44.526 20.0233C43.9093 19.9014 43.1199 19.8282 42.2071 19.8038C40.7024 19.8038 39.5429 20.0965 38.7289 20.6818C37.9148 21.2671 37.3474 22.0964 37.0268 23.1695C36.7061 24.2426 36.5581 25.5352 36.5827 27.0229C36.5827 28.8033 36.7801 30.1935 37.2241 31.2178C37.6681 32.2422 38.3835 32.9494 39.3949 33.3884C40.4063 33.8031 41.7384 34.0226 43.4406 33.9982C44.2546 33.9982 45.044 33.9494 45.8088 33.8275C46.5735 33.7299 47.2642 33.5836 47.9056 33.3884C48.5963 33.1689 49.0403 32.8763 49.213 32.4861C49.3857 32.1202 49.4597 31.7544 49.435 31.3886ZM45.4141 31.0471C45.3894 31.0471 45.192 31.0959 44.822 31.1691C44.452 31.2422 43.9833 31.291 43.4652 31.291C42.7992 31.3154 42.2565 31.2178 41.8371 31.0227C41.4178 30.8276 41.1217 30.413 40.9244 29.7545C40.727 29.096 40.6284 28.096 40.6284 26.7547C40.6284 25.462 40.7024 24.5109 40.875 23.9012C41.0477 23.2914 41.3437 22.8768 41.7138 22.7061C42.1085 22.5354 42.6265 22.4378 43.2926 22.4622C43.8106 22.4622 44.2793 22.511 44.6987 22.5841C45.1427 22.6573 45.3647 22.6817 45.3894 22.7061L45.4141 31.0471Z" fill="black"/>
<path d="M55.7983 33.2666V20.8526C55.7983 20.7307 55.749 20.6331 55.675 20.5844C55.601 20.5112 55.5023 20.4868 55.3789 20.4868H52.2214C52.098 20.4868 51.9994 20.5356 51.9253 20.5844C51.8513 20.6575 51.802 20.7551 51.802 20.8526V33.2666C51.802 33.3885 51.8513 33.4861 51.9253 33.5349C51.9994 33.6081 52.098 33.6324 52.2214 33.6324H55.3789C55.5023 33.6324 55.601 33.5837 55.675 33.5349C55.7736 33.4861 55.7983 33.3885 55.7983 33.2666ZM55.7736 17.926V15.4627C55.7736 15.2432 55.7243 15.0725 55.601 14.9505C55.4776 14.853 55.3049 14.7798 55.0582 14.7798H52.5667C52.32 14.7798 52.1474 14.8286 52.024 14.9505C51.9007 15.0481 51.8513 15.2188 51.8513 15.4627V17.926C51.8513 18.1699 51.9007 18.3406 52.024 18.4381C52.1474 18.5357 52.32 18.5845 52.5667 18.5845H55.0582C55.3049 18.5845 55.4776 18.5357 55.601 18.4381C55.7243 18.3406 55.7736 18.1699 55.7736 17.926Z" fill="black"/>
<path d="M68.9472 32.6812L68.6019 31.1203C68.5772 30.9983 68.5279 30.9008 68.4538 30.852C68.3798 30.8032 68.3058 30.7788 68.2318 30.7788C68.2072 30.7788 68.1825 30.7788 68.1332 30.8032C68.1085 30.8032 68.0838 30.8276 68.0591 30.8276C67.7385 30.9008 67.3438 30.9983 66.8011 31.0959C66.283 31.1934 65.7156 31.2422 65.0743 31.2422C63.7668 31.2666 62.8541 30.9251 62.336 30.2666C61.818 29.5838 61.596 28.4619 61.6207 26.8766C61.596 25.2913 61.8427 24.1938 62.336 23.5109C62.8541 22.8524 63.7422 22.5354 65.0743 22.5354C65.691 22.5354 66.2583 22.5841 66.8011 22.6817C67.3191 22.7793 67.7385 22.8524 68.0591 22.95C68.0838 22.95 68.1085 22.95 68.1332 22.9744C68.1578 22.9744 68.1825 22.9744 68.2318 22.9987C68.3058 22.9987 68.3798 22.9744 68.4538 22.9256C68.5279 22.8768 68.5772 22.8036 68.6019 22.6817L68.9472 21.0964V20.9257C68.9472 20.8281 68.9225 20.7306 68.8732 20.6574C68.8239 20.5842 68.7499 20.5355 68.6512 20.4867C68.3058 20.316 67.7385 20.1696 66.8997 20.0477C66.0857 19.9014 65.1729 19.8282 64.1862 19.8282C62.4841 19.8282 61.152 20.0965 60.2146 20.6086C59.2525 21.1208 58.5864 21.9012 58.2164 22.95C57.8217 23.9987 57.649 25.2913 57.6737 26.8766C57.649 28.4375 57.8464 29.7301 58.2164 30.7788C58.6111 31.8275 59.2772 32.608 60.2146 33.1202C61.1766 33.6323 62.5087 33.9006 64.1862 33.9006C65.1729 33.9006 66.0857 33.8274 66.8997 33.6811C67.7138 33.5348 68.3058 33.3884 68.6512 33.2177C68.7499 33.1689 68.8239 33.1202 68.8732 33.047C68.9225 32.9738 68.9472 32.9007 68.9472 32.8031V32.6812Z" fill="black"/>
<path d="M83.1562 26.9254C83.1809 25.584 83.0576 24.3889 82.7369 23.3158C82.4408 22.2427 81.7995 21.4135 80.8621 20.7794C79.9 20.1452 78.4692 19.8282 76.5451 19.8282C74.6209 19.8526 73.1655 20.1696 72.2281 20.7794C71.266 21.4135 70.6493 22.2427 70.3533 23.3158C70.0572 24.3889 69.9092 25.584 69.9586 26.9254C69.9339 28.2668 70.0572 29.4618 70.3533 30.5105C70.6493 31.5837 71.266 32.4129 72.2281 33.0226C73.1655 33.6567 74.6209 33.9738 76.5451 33.9738C78.4692 33.9494 79.9 33.6323 80.8621 33.0226C81.8241 32.4129 82.4408 31.5593 82.7369 30.5105C83.0329 29.4374 83.1809 28.2424 83.1562 26.9254ZM79.0613 26.9254C79.0859 27.9253 79.0366 28.7545 78.9379 29.413C78.8392 30.0715 78.6172 30.5349 78.2472 30.852C77.8772 31.169 77.3098 31.3154 76.5204 31.3154C75.731 31.3154 75.1636 31.169 74.7936 30.852C74.4236 30.5349 74.2016 30.0471 74.1275 29.413C74.0289 28.7545 74.0042 27.9497 74.0042 26.9254C73.9795 25.9254 74.0289 25.0718 74.1275 24.4377C74.2262 23.7792 74.4482 23.2914 74.7936 22.9744C75.1636 22.6573 75.731 22.511 76.5204 22.511C77.3098 22.511 77.8772 22.6573 78.2472 22.9744C78.6172 23.2914 78.8392 23.7792 78.9379 24.4377C79.0366 25.0718 79.0859 25.901 79.0613 26.9254Z" fill="black"/>
<path d="M106 33.2663V23.8034C105.975 22.2425 105.507 21.1694 104.594 20.6085C103.681 20.0475 102.374 19.7792 100.721 19.828C99.5369 19.8524 98.4515 19.9744 97.4894 20.1939C96.5026 20.4134 95.8859 20.5841 95.6146 20.706C95.2692 20.4378 94.8005 20.2426 94.2331 20.0719C93.6658 19.9256 92.9751 19.828 92.161 19.828C91.2976 19.828 90.4095 19.9012 89.4968 19.9988C88.584 20.1207 87.77 20.2426 87.1039 20.4134C86.3639 20.5841 85.7965 20.7792 85.4511 20.9987C85.1058 21.2182 84.9331 21.584 84.9331 22.0474V33.2663C84.9331 33.3883 84.9824 33.4858 85.0318 33.559C85.1058 33.6322 85.2045 33.6566 85.3278 33.6566H88.4854C88.6087 33.6566 88.7074 33.6078 88.7814 33.559C88.8554 33.4858 88.8801 33.3883 88.8801 33.2663V22.8035C88.9047 22.7791 89.2254 22.7303 89.7928 22.6328C90.3602 22.5352 90.9769 22.4864 91.643 22.462C92.235 22.462 92.679 22.584 92.9751 22.8766C93.2711 23.1693 93.4191 23.6571 93.4191 24.34V33.2663C93.4191 33.3883 93.4684 33.4858 93.5424 33.5346C93.6164 33.6078 93.7398 33.6322 93.8631 33.6322H97.0207C97.144 33.6322 97.2427 33.5834 97.292 33.5346C97.3661 33.4614 97.3907 33.3639 97.3907 33.2663V22.7791C97.4154 22.7547 97.7114 22.7059 98.2541 22.6328C98.7968 22.5352 99.3889 22.4864 100.03 22.4864C100.622 22.4864 101.091 22.6084 101.412 22.901C101.732 23.1937 101.905 23.6815 101.905 24.3644V33.2907C101.905 33.4127 101.954 33.5102 102.028 33.559C102.102 33.6322 102.226 33.6566 102.349 33.6566H105.507C105.63 33.6566 105.729 33.6322 105.803 33.559C105.951 33.4858 106 33.3883 106 33.2663Z" fill="black"/>
<path d="M12.8764 8.75563V11.2677C12.8764 11.6091 13.1724 11.9018 13.5178 11.9018H16.0586C16.404 11.9018 16.7 11.6091 16.7 11.2677V8.75563C16.7 8.41418 16.404 8.12151 16.0586 8.12151H13.5178C13.1724 8.12151 12.8764 8.41418 12.8764 8.75563ZM5.7965 11.6823C5.3278 11.6823 4.95777 11.3165 4.93311 10.8775V0.853613C4.93311 0.365834 5.3278 0 5.7965 0H19.7342C20.2029 0 20.5976 0.390223 20.5976 0.853613V14.6821C20.5976 15.1699 20.2029 15.5357 19.7342 15.5357H13.6411C13.1724 15.5357 12.7777 15.1455 12.7777 14.6821V12.5603C12.7777 12.0725 12.383 11.7067 11.9143 11.7067L5.7965 11.6823Z" fill="#F5AC01"/>
<path d="M6.41455 15.0723C6.41455 14.7309 6.71057 14.4382 7.05593 14.4382H9.59679C9.94215 14.4382 10.2382 14.7309 10.2382 15.0723V17.5844C10.2382 17.9258 9.94215 18.2185 9.59679 18.2185H7.05593C6.71057 18.2185 6.41455 17.9258 6.41455 17.5844V15.0723Z" fill="#F5AC01"/>
<path d="M4.86011 21.4379C4.86011 21.0964 5.15613 20.8038 5.50149 20.8038H8.04235C8.38771 20.8038 8.68373 21.0964 8.68373 21.4379V23.9499C8.68373 24.2914 8.38771 24.5841 8.04235 24.5841H5.50149C5.15613 24.5841 4.86011 24.2914 4.86011 23.9499V21.4379Z" fill="#F5AC01"/>
<path d="M0 16.6577C0 16.3162 0.296022 16.0236 0.641382 16.0236H3.10824C3.45359 16.0236 3.74962 16.3162 3.74962 16.6577V19.0966C3.74962 19.438 3.45359 19.7307 3.10824 19.7307H0.641382C0.296022 19.7307 0 19.438 0 19.0966V16.6577Z" fill="#F5AC01"/>
</svg>
